<svg width="291" height="51" viewBox="0 0 291 51" fill="none" xmlns="http://www.w3.org/2000/svg">
<circle cx="25.6235" cy="25.8027" r="25" fill="url(#paint0_linear_10099_116)"/>
<circle cx="105.624" cy="25.8027" r="25" fill="url(#paint1_linear_10099_116)"/>
<circle cx="185.624" cy="25.8027" r="25" fill="url(#paint2_linear_10099_116)"/>
<circle cx="265.624" cy="25.8027" r="25" fill="url(#paint3_linear_10099_116)"/>
<path d="M115.681 20.7476C115.562 20.3037 115.328 19.8989 115.002 19.5738C114.677 19.2487 114.273 19.0146 113.829 18.8951C112.194 18.4526 105.624 18.4526 105.624 18.4526C105.624 18.4526 99.0536 18.4526 97.4186 18.8951C96.9746 19.0146 96.5698 19.2487 96.2447 19.5738C95.9196 19.8989 95.6856 20.3037 95.5661 20.7476C95.2608 22.4151 95.1127 24.1075 95.1236 25.8026C95.1127 27.4978 95.2608 29.1902 95.5661 30.8576C95.6856 31.3016 95.9196 31.7064 96.2447 32.0315C96.5698 32.3566 96.9746 32.5906 97.4186 32.7101C99.0536 33.1526 105.624 33.1526 105.624 33.1526C105.624 33.1526 112.194 33.1526 113.829 32.7101C114.273 32.5906 114.677 32.3566 115.002 32.0315C115.328 31.7064 115.562 31.3016 115.681 30.8576C115.986 29.1902 116.135 27.4978 116.124 25.8026C116.135 24.1075 115.986 22.4151 115.681 20.7476ZM103.524 28.9526V22.6526L108.976 25.8026L103.524 28.9526Z" fill="white"/>
<g clip-path="url(#clip0_10099_116)">
<path fill-rule="evenodd" clip-rule="evenodd" d="M34.986 28.5604C34.986 28.5604 36.9264 30.4768 37.4064 31.3636C37.4158 31.3764 37.4231 31.3905 37.428 31.4056C37.6236 31.7332 37.6716 31.99 37.5756 32.1796C37.4136 32.4928 36.8652 32.65 36.6792 32.6632H33.2496C33.0108 32.6632 32.514 32.6008 31.9092 32.1832C31.4472 31.8604 30.9876 31.3288 30.5424 30.8092C29.8776 30.0376 29.3028 29.368 28.7208 29.368C28.6473 29.3678 28.5743 29.38 28.5048 29.404C28.0644 29.5432 27.5052 30.1708 27.5052 31.8424C27.5052 32.3656 27.0924 32.6632 26.8032 32.6632H25.2324C24.6972 32.6632 21.9108 32.476 19.44 29.8708C16.4124 26.6812 13.6932 20.2828 13.6668 20.2264C13.4976 19.8124 13.8528 19.5868 14.2368 19.5868H17.7C18.1644 19.5868 18.3156 19.8676 18.4212 20.1196C18.5436 20.4088 18.9972 21.5656 19.7412 22.8652C20.946 24.9796 21.6864 25.84 22.278 25.84C22.3892 25.8403 22.4985 25.8113 22.5948 25.756C23.3676 25.3312 23.2236 22.5712 23.1876 22.0024C23.1876 21.892 23.1864 20.77 22.7904 20.2276C22.5072 19.8388 22.0248 19.6876 21.7332 19.6324C21.8112 19.5196 21.9768 19.3468 22.1892 19.2448C22.7184 18.9808 23.6748 18.9424 24.624 18.9424H25.1508C26.1804 18.9568 26.4468 19.0228 26.8212 19.1176C27.5748 19.2976 27.5892 19.786 27.5232 21.4492C27.504 21.9244 27.4836 22.4596 27.4836 23.0896C27.4836 23.224 27.4776 23.374 27.4776 23.5264C27.4548 24.3796 27.4248 25.3408 28.0272 25.7356C28.1054 25.7843 28.1956 25.81 28.2876 25.81C28.4964 25.81 29.1216 25.81 30.8172 22.9C31.5612 21.6148 32.1372 20.0992 32.1768 19.9852C32.2104 19.9216 32.3112 19.7428 32.4336 19.6708C32.5207 19.6245 32.6182 19.6013 32.7168 19.6036H36.7908C37.2348 19.6036 37.536 19.6708 37.5948 19.8388C37.6932 20.1112 37.5756 20.9428 35.7156 23.458C35.4024 23.8768 35.1276 24.2392 34.8864 24.556C33.2004 26.7688 33.2004 26.8804 34.986 28.5604Z" fill="white"/>
</g>
<path d="M187.021 34.7999V26.6039H189.786L190.197 23.3949H187.021V21.3509C187.021 20.4249 187.279 19.7909 188.608 19.7909H190.292V16.9299C189.472 16.8421 188.649 16.7997 187.825 16.8029C185.381 16.8029 183.703 18.2949 183.703 21.0339V23.3889H180.956V26.5979H183.709V34.7999H187.021Z" fill="white"/>
<g clip-path="url(#clip1_10099_116)">
<path d="M270.124 13.8027H261.124C256.982 13.8027 253.624 17.1612 253.624 21.3027V30.3027C253.624 34.4442 256.982 37.8027 261.124 37.8027H270.124C274.265 37.8027 277.624 34.4442 277.624 30.3027V21.3027C277.624 17.1612 274.265 13.8027 270.124 13.8027ZM275.374 30.3027C275.374 33.1977 273.019 35.5527 270.124 35.5527H261.124C258.229 35.5527 255.874 33.1977 255.874 30.3027V21.3027C255.874 18.4077 258.229 16.0527 261.124 16.0527H270.124C273.019 16.0527 275.374 18.4077 275.374 21.3027V30.3027Z" fill="white"/>
<path d="M265.624 19.8027C262.31 19.8027 259.624 22.4892 259.624 25.8027C259.624 29.1162 262.31 31.8027 265.624 31.8027C268.937 31.8027 271.624 29.1162 271.624 25.8027C271.624 22.4892 268.937 19.8027 265.624 19.8027ZM265.624 29.5527C263.557 29.5527 261.874 27.8697 261.874 25.8027C261.874 23.7342 263.557 22.0527 265.624 22.0527C267.691 22.0527 269.374 23.7342 269.374 25.8027C269.374 27.8697 267.691 29.5527 265.624 29.5527Z" fill="white"/>
<path d="M272.071 20.1527C272.513 20.1527 272.871 19.7948 272.871 19.3532C272.871 18.9117 272.513 18.5537 272.071 18.5537C271.63 18.5537 271.272 18.9117 271.272 19.3532C271.272 19.7948 271.63 20.1527 272.071 20.1527Z" fill="white"/>
</g>
<defs>
<linearGradient id="paint0_linear_10099_116" x1="5.73403" y1="0.802729" x2="48.8622" y2="4.01739" gradientUnits="userSpaceOnUse">
<stop stop-color="#C89AFC"/>
<stop offset="1" stop-color="#7C6AFA"/>
</linearGradient>
<linearGradient id="paint1_linear_10099_116" x1="85.734" y1="0.802729" x2="128.862" y2="4.01739" gradientUnits="userSpaceOnUse">
<stop stop-color="#C89AFC"/>
<stop offset="1" stop-color="#7C6AFA"/>
</linearGradient>
<linearGradient id="paint2_linear_10099_116" x1="165.734" y1="0.802729" x2="208.862" y2="4.01739" gradientUnits="userSpaceOnUse">
<stop stop-color="#C89AFC"/>
<stop offset="1" stop-color="#7C6AFA"/>
</linearGradient>
<linearGradient id="paint3_linear_10099_116" x1="245.734" y1="0.802729" x2="288.862" y2="4.01739" gradientUnits="userSpaceOnUse">
<stop stop-color="#C89AFC"/>
<stop offset="1" stop-color="#7C6AFA"/>
</linearGradient>
<clipPath id="clip0_10099_116">
<rect x="13.6235" y="13.8027" width="24" height="24" fill="white"/>
</clipPath>
<clipPath id="clip1_10099_116">
<rect width="24" height="24" fill="white" transform="translate(253.624 13.8027)"/>
</clipPath>
</defs>
</svg>
