<svg width="51" height="51" viewBox="0 0 51 51" fill="none" xmlns="http://www.w3.org/2000/svg">
<circle cx="25.6235" cy="25.8027" r="25" fill="url(#paint0_linear_70820_6)"/>
<path d="M35.6811 20.7476C35.5616 20.3037 35.3276 19.8989 35.0025 19.5738C34.6774 19.2487 34.2726 19.0146 33.8286 18.8951C32.1936 18.4526 25.6236 18.4526 25.6236 18.4526C25.6236 18.4526 19.0536 18.4526 17.4186 18.8951C16.9746 19.0146 16.5698 19.2487 16.2447 19.5738C15.9196 19.8989 15.6856 20.3037 15.5661 20.7476C15.2608 22.4151 15.1127 24.1075 15.1236 25.8026C15.1127 27.4978 15.2608 29.1902 15.5661 30.8576C15.6856 31.3016 15.9196 31.7064 16.2447 32.0315C16.5698 32.3566 16.9746 32.5906 17.4186 32.7101C19.0536 33.1526 25.6236 33.1526 25.6236 33.1526C25.6236 33.1526 32.1936 33.1526 33.8286 32.7101C34.2726 32.5906 34.6774 32.3566 35.0025 32.0315C35.3276 31.7064 35.5616 31.3016 35.6811 30.8576C35.9864 29.1902 36.1346 27.4978 36.1236 25.8026C36.1346 24.1075 35.9864 22.4151 35.6811 20.7476ZM23.5236 28.9526V22.6526L28.9761 25.8026L23.5236 28.9526Z" fill="white"/>
<defs>
<linearGradient id="paint0_linear_70820_6" x1="5.73403" y1="0.802729" x2="48.8622" y2="4.01739" gradientUnits="userSpaceOnUse">
<stop stop-color="#C89AFC"/>
<stop offset="1" stop-color="#7C6AFA"/>
</linearGradient>
</defs>
</svg>
