<svg width="50" height="50" viewBox="0 0 50 50" fill="none" xmlns="http://www.w3.org/2000/svg">
<circle cx="25" cy="25" r="25" fill="url(#paint0_linear_70819_6)"/>
<g clip-path="url(#clip0_70819_6)">
<path fill-rule="evenodd" clip-rule="evenodd" d="M33.986 27.5604C33.986 27.5604 35.9264 29.4768 36.4064 30.3636C36.4158 30.3764 36.4231 30.3905 36.428 30.4056C36.6236 30.7332 36.6716 30.99 36.5756 31.1796C36.4136 31.4928 35.8652 31.65 35.6792 31.6632H32.2496C32.0108 31.6632 31.514 31.6008 30.9092 31.1832C30.4472 30.8604 29.9876 30.3288 29.5424 29.8092C28.8776 29.0376 28.3028 28.368 27.7208 28.368C27.6473 28.3678 27.5743 28.38 27.5048 28.404C27.0644 28.5432 26.5052 29.1708 26.5052 30.8424C26.5052 31.3656 26.0924 31.6632 25.8032 31.6632H24.2324C23.6972 31.6632 20.9108 31.476 18.44 28.8708C15.4124 25.6812 12.6932 19.2828 12.6668 19.2264C12.4976 18.8124 12.8528 18.5868 13.2368 18.5868H16.7C17.1644 18.5868 17.3156 18.8676 17.4212 19.1196C17.5436 19.4088 17.9972 20.5656 18.7412 21.8652C19.946 23.9796 20.6864 24.84 21.278 24.84C21.3892 24.8403 21.4985 24.8113 21.5948 24.756C22.3676 24.3312 22.2236 21.5712 22.1876 21.0024C22.1876 20.892 22.1864 19.77 21.7904 19.2276C21.5072 18.8388 21.0248 18.6876 20.7332 18.6324C20.8112 18.5196 20.9768 18.3468 21.1892 18.2448C21.7184 17.9808 22.6748 17.9424 23.624 17.9424H24.1508C25.1804 17.9568 25.4468 18.0228 25.8212 18.1176C26.5748 18.2976 26.5892 18.786 26.5232 20.4492C26.504 20.9244 26.4836 21.4596 26.4836 22.0896C26.4836 22.224 26.4776 22.374 26.4776 22.5264C26.4548 23.3796 26.4248 24.3408 27.0272 24.7356C27.1054 24.7843 27.1956 24.81 27.2876 24.81C27.4964 24.81 28.1216 24.81 29.8172 21.9C30.5612 20.6148 31.1372 19.0992 31.1768 18.9852C31.2104 18.9216 31.3112 18.7428 31.4336 18.6708C31.5207 18.6245 31.6182 18.6013 31.7168 18.6036H35.7908C36.2348 18.6036 36.536 18.6708 36.5948 18.8388C36.6932 19.1112 36.5756 19.9428 34.7156 22.458C34.4024 22.8768 34.1276 23.2392 33.8864 23.556C32.2004 25.7688 32.2004 25.8804 33.986 27.5604Z" fill="white"/>
</g>
<defs>
<linearGradient id="paint0_linear_70819_6" x1="5.1105" y1="-5.43152e-06" x2="48.2386" y2="3.21466" gradientUnits="userSpaceOnUse">
<stop stop-color="#C89AFC"/>
<stop offset="1" stop-color="#7C6AFA"/>
</linearGradient>
<clipPath id="clip0_70819_6">
<rect x="12.6235" y="12.8027" width="24" height="24" fill="white"/>
</clipPath>
</defs>
</svg>
